<?xml version="1.0" encoding="UTF-8" standalone="no"?>
<svg
   sodipodi:docname="Estampille CM simplifiée.svg"
   inkscape:version="1.1.1 (3bf5ae0d25, 2021-09-20)"
   id="svg692"
   version="1.1"
   viewBox="0 0 210 297"
   height="297mm"
   width="210mm"
   xmlns:inkscape="http://www.inkscape.org/namespaces/inkscape"
   xmlns:sodipodi="http://sodipodi.sourceforge.net/DTD/sodipodi-0.dtd"
   xmlns="http://www.w3.org/2000/svg"
   xmlns:svg="http://www.w3.org/2000/svg"
   xmlns:rdf="http://www.w3.org/1999/02/22-rdf-syntax-ns#"
   xmlns:cc="http://creativecommons.org/ns#"
   xmlns:dc="http://purl.org/dc/elements/1.1/">
  <defs
     id="defs686" />
  <sodipodi:namedview
     inkscape:window-maximized="1"
     inkscape:window-y="-8"
     inkscape:window-x="249"
     inkscape:window-height="1017"
     inkscape:window-width="1920"
     showgrid="false"
     inkscape:document-rotation="0"
     inkscape:current-layer="layer1"
     inkscape:document-units="mm"
     inkscape:cy="561.42857"
     inkscape:cx="398.57143"
     inkscape:zoom="0.35"
     inkscape:pageshadow="2"
     inkscape:pageopacity="0.0"
     borderopacity="1.0"
     bordercolor="#666666"
     pagecolor="#ffffff"
     id="base"
     inkscape:pagecheckerboard="0" />
  <metadata
     id="metadata689">
    <rdf:RDF>
      <cc:Work
         rdf:about="">
        <dc:format>image/svg+xml</dc:format>
        <dc:type
           rdf:resource="http://purl.org/dc/dcmitype/StillImage" />
      </cc:Work>
    </rdf:RDF>
  </metadata>
  <g
     id="layer1"
     inkscape:groupmode="layer"
     inkscape:label="Layer 1">
    <path
       inkscape:connector-curvature="0"
       style="display:inline;fill:#000000;stroke-width:0.264583"
       d="m 106.353,236.41526 c 7.25796,-0.38251 14.21268,-5.83002 18.22092,-11.7909 6.9223,-4.0657 9.60675,-13.4771 7.50645,-20.79187 -5.17866,-4.82934 -8.63376,3.71915 -7.12967,8.04623 2.44829,7.43238 -3.75761,12.74837 -9.59695,15.89167 -5.44657,4.43468 -15.413399,6.65628 -20.89001,1.12526 -4.804938,-6.49076 -10.111158,-13.43042 -10.103739,-21.76263 -1.536891,-4.92298 -4.659672,-11.26715 -2.899025,-15.94251 8.013438,-1.9515 11.302087,-10.82128 13.782509,-17.81984 0.893346,-2.58531 2.829849,-13.68612 5.520835,-9.00326 0.51789,5.47332 0.55978,11.29927 0.61081,17.02415 -1.613716,5.64036 5.76394,6.94687 4.4523,-0.0236 -0.13241,-8.14909 7.03772,-13.78578 8.62403,-21.49471 2.40326,-3.24492 2.53156,-15.63306 6.77464,-11.24838 2.04754,6.12596 -1.57561,13.18828 -0.0908,19.8709 2.06569,6.19387 -0.13372,11.29088 -5.46059,14.54343 -1.2827,7.43138 10.83018,1.30071 15.15869,3.03474 6.39291,0.69092 12.64503,-0.42115 18.93607,-1.78014 7.98699,2.59287 9.66541,-14.9875 1.95675,-7.8496 -5.66401,5.37261 -15.07167,3.66374 -22.05345,2.0585 -3.25147,-6.43376 -2.01913,-15.63872 -2.74076,-23.23529 -0.60864,-13.00951 2.64392,-25.73471 4.19463,-38.57437 1.60114,-8.97898 3.15535,-18.870509 9.71478,-25.691794 7.3526,-1.891503 12.43158,7.34501 19.64257,5.761608 5.81626,-2.052915 9.15084,-11.024101 0.27212,-10.71472 -6.794,-3.660004 -13.65742,-5.968619 -21.25472,-5.522058 -5.8175,2.313871 -9.27373,7.613252 -10.37824,14.065638 -2.65588,7.742206 -5.61693,15.387136 -6.48053,23.596326 -1.59503,8.90189 -3.34772,17.76787 -6.57259,26.23364 -1.80686,5.52589 -2.76429,8.32213 -4.71835,13.79639 -0.17713,5.03724 -7.30083,13.83985 -6.17127,3.93899 -0.44476,-7.2703 -2.33194,-13.78747 -0.12007,-21.06239 3.2709,-6.3296 -2.73543,-9.63885 -5.457005,-2.77468 -0.696333,6.64042 -2.599038,12.77204 -3.955255,19.3659 -1.224698,7.51116 -0.03263,16.20365 -6.522777,21.97215 -2.439524,3.33128 -10.512406,13.12876 -8.769586,2.68707 -0.491081,-5.75987 -1.146593,-10.67144 -0.888278,-16.59675 -0.294977,-7.34274 -1.244203,-14.7219 0.06059,-21.97001 1.44862,-7.2464 1.545122,-14.72878 1.241195,-22.27361 2.566643,-12.07069 3.693847,-24.396215 3.297089,-36.728639 1.681783,-10.329123 2.554214,-21.649767 9.377214,-30.095537 5.709093,-4.010924 14.346148,0.891024 14.724398,7.884361 6.04336,5.09483 10.35868,-1.151405 6.01564,-6.867524 -3.02808,-8.277457 -11.87476,-8.889399 -19.392771,-8.059787 -6.278721,2.183146 -9.926693,9.632332 -11.703884,15.83618 -2.976449,6.629196 -3.805612,13.531491 -5.128528,20.60995 -0.240051,5.778688 -0.641871,11.368292 -0.996786,17.254706 -0.827038,5.10438 -0.660821,9.62462 -1.192779,14.43159 -0.359349,5.64245 0.888105,11.58921 -1.070141,16.95844 -0.482935,7.18646 -0.981704,14.59975 -0.119461,22.10786 0.06066,7.61705 -1.888443,14.83214 -1.395451,22.49016 2.428554,4.72115 3.82281,16.0143 -3.940293,9.03132 -3.416251,-7.10793 -10.920979,-2.90242 -15.281841,-1.97805 -6.038357,-2.7033 -1.063409,6.94993 3.25248,5.6391 4.768759,4.45251 11.715013,6.59453 17.968628,3.84344 1.478259,5.34533 1.729978,14.44829 4.324931,20.87459 2.583748,6.79606 7.102746,12.35558 11.456281,18.06007 3.97408,3.13965 10.555285,4.05421 15.389065,3.61828 z"
       id="path3987-6" />
  </g>
</svg>
