<?xml version="1.0" standalone="no"?>
<!DOCTYPE svg PUBLIC "-//W3C//DTD SVG 20010904//EN"
 "http://www.w3.org/TR/2001/REC-SVG-20010904/DTD/svg10.dtd">
<svg version="1.0" xmlns="http://www.w3.org/2000/svg"
 width="1123.000000pt" height="1123.000000pt" viewBox="0 0 1123.000000 1123.000000"
 preserveAspectRatio="xMidYMid meet">
<metadata>
Created by potrace 1.14, written by Peter Selinger 2001-2017
</metadata>
<g transform="translate(0.000000,1123.000000) scale(0.100000,-0.100000)"
fill="#000000" stroke="none">
<path d="M5172 9411 c-152 -74 -284 -253 -373 -506 -15 -44 -43 -124 -63 -177
-72 -198 -150 -591 -161 -813 -9 -190 -34 -537 -45 -635 -18 -155 -30 -426
-30 -662 0 -171 -4 -252 -16 -303 -8 -38 -20 -95 -26 -125 -8 -36 -12 -232
-13 -565 -2 -431 -5 -531 -20 -645 -11 -83 -19 -200 -19 -305 -1 -164 0 -173
28 -245 35 -88 47 -245 24 -290 -29 -54 -128 -27 -190 52 -93 119 -143 148
-252 148 -63 0 -110 -10 -231 -47 -63 -19 -92 -23 -133 -18 -35 4 -58 3 -68
-5 -32 -27 -9 -97 55 -163 46 -49 80 -67 126 -67 27 0 47 -9 75 -33 59 -50
141 -96 222 -124 120 -42 298 -42 399 1 20 9 28 -23 59 -219 43 -273 52 -323
76 -411 60 -226 151 -395 373 -691 82 -110 118 -148 158 -173 143 -87 394
-130 582 -99 206 33 411 156 557 332 32 39 77 88 98 107 132 119 176 172 221
264 54 111 77 209 78 331 1 128 -16 199 -55 226 -43 31 -114 36 -154 11 -43
-28 -83 -100 -100 -185 -14 -66 -14 -77 3 -142 26 -103 22 -215 -9 -285 -52
-115 -138 -195 -365 -342 -159 -103 -293 -148 -444 -148 -175 0 -272 50 -380
196 -202 274 -301 478 -314 652 -4 52 -21 120 -50 207 -69 205 -85 271 -85
360 0 113 4 121 57 135 106 30 229 142 316 287 64 108 148 317 193 483 58 216
112 306 153 256 19 -23 31 -192 35 -504 l4 -284 28 -29 c37 -39 90 -40 124 -3
22 23 25 36 31 157 9 165 33 238 140 418 83 141 130 232 154 305 15 43 36 97
46 119 10 22 27 76 39 120 62 237 92 305 135 305 9 0 27 -11 40 -24 42 -42 45
-207 10 -443 -20 -134 -19 -227 6 -336 26 -117 23 -229 -10 -301 -30 -69 -91
-145 -150 -186 -58 -41 -69 -71 -47 -124 17 -42 62 -66 123 -66 21 0 110 9
199 22 147 20 168 21 247 8 118 -18 322 -8 512 26 83 15 191 30 241 33 99 7
126 18 169 75 59 77 83 203 50 266 -31 59 -83 52 -180 -26 -87 -70 -127 -90
-222 -115 -54 -13 -110 -19 -192 -19 -104 0 -152 6 -380 47 -26 5 -36 14 -49
42 -51 119 -63 230 -83 719 -15 372 -4 538 72 1022 22 140 53 346 69 457 76
513 149 752 293 961 68 99 86 112 157 112 77 0 144 -23 254 -87 50 -30 128
-72 173 -95 148 -72 256 -63 356 31 131 122 142 268 24 321 -23 11 -60 20 -83
20 -25 0 -61 11 -95 29 -198 107 -422 170 -625 178 l-131 6 -64 -34 c-153 -82
-275 -249 -319 -440 -7 -30 -50 -166 -96 -304 -95 -288 -124 -397 -153 -585
-47 -300 -127 -660 -189 -855 -16 -49 -77 -229 -135 -400 -58 -170 -112 -338
-121 -372 -42 -166 -167 -317 -204 -245 -5 9 -12 80 -15 157 -4 77 -13 196
-22 265 -28 230 -15 421 35 542 22 52 26 137 9 171 -30 59 -91 73 -149 33 -54
-36 -85 -104 -104 -231 -10 -60 -44 -225 -76 -365 -59 -255 -73 -340 -85 -500
-14 -196 -53 -359 -108 -452 -15 -26 -48 -70 -75 -100 -26 -29 -80 -92 -120
-140 -108 -130 -186 -188 -225 -167 -14 8 -17 27 -17 116 0 58 -6 180 -14 272
-18 204 -31 619 -30 926 0 189 4 250 22 345 34 186 44 319 46 600 1 146 4 270
8 275 10 17 58 315 79 495 22 196 43 622 36 734 -3 46 0 114 8 160 7 45 21
131 30 191 58 380 130 604 257 796 68 103 106 124 228 124 75 0 93 -4 152 -32
113 -53 200 -162 214 -268 6 -36 13 -48 43 -69 49 -34 85 -46 136 -46 35 0 52
6 79 30 72 64 72 147 0 291 -87 175 -158 243 -307 296 -64 23 -91 26 -252 30
l-180 4 -63 -30z"/>
</g>
</svg>
